# xmcd
# 
# Track frame offsets:
#     150
#     21517
#     37062
#     49455
#     58787
#     65990
#     85330
#     93867
# 
# Disc length: 1455
# 
# Revision: 16
# Processed by: cddbd v1.5.2PL0 Copyright (c) Steve Scherf et al.
# Submitted via: fre:ac v1.0.31
# 
DISCID=7605ad08
DTITLE=Mark Knopfler - Wag The Dog (Music From The Motion Picture)
DYEAR=1998
DGENRE=Soundtrack
TTITLE0=Wag The Dog
TTITLE1=Working On It
TTITLE2=In The Heartland
TTITLE3=An American Hero
TTITLE4=Just Instinct
TTITLE5=Stretching Out
TTITLE6=Drooling National
TTITLE7=We're Going To War
EXTD=YEAR: 1998
EXTT0=
EXTT1=
EXTT2=
EXTT3=
EXTT4=
EXTT5=
EXTT6=
EXTT7=
PLAYORDER=
